<mxfile host="app.diagrams.net" modified="2024-04-10T09:22:42.841Z" agent="Mozilla/5.0 (Windows NT 10.0; Win64; x64) AppleWebKit/537.36 (KHTML, like Gecko) Chrome/123.0.0.0 Safari/537.36" etag="PDtybhPX2VsDlYeyZ09D" version="24.2.2" type="github">
  <diagram name="第 1 页" id="7DeAwXepQiTZZk-V4utp">
    <mxGraphModel dx="1434" dy="841" grid="1" gridSize="10" guides="1" tooltips="1" connect="1" arrows="1" fold="1" page="1" pageScale="1" pageWidth="827" pageHeight="1169" math="0" shadow="0">
      <root>
        <mxCell id="0" />
        <mxCell id="1" parent="0" />
        <mxCell id="GSFXjEDuzY1Gm6PCdfIp-3" value="&lt;font style=&quot;font-size: 20px;&quot;&gt;环境一&lt;/font&gt;" style="swimlane;horizontal=0;whiteSpace=wrap;html=1;strokeColor=#788AA3;fontColor=#46495D;fillColor=#B2C9AB;" vertex="1" parent="1">
          <mxGeometry x="50" y="240" width="730" height="100" as="geometry" />
        </mxCell>
        <mxCell id="GSFXjEDuzY1Gm6PCdfIp-4" value="&lt;font style=&quot;font-size: 20px;&quot;&gt;网关&lt;/font&gt;" style="rounded=1;whiteSpace=wrap;html=1;strokeColor=#788AA3;fontColor=#46495D;fillColor=#B2C9AB;" vertex="1" parent="GSFXjEDuzY1Gm6PCdfIp-3">
          <mxGeometry x="50" y="20" width="120" height="60" as="geometry" />
        </mxCell>
        <mxCell id="GSFXjEDuzY1Gm6PCdfIp-5" value="&lt;span style=&quot;font-size: 20px;&quot;&gt;投保&lt;/span&gt;" style="rounded=1;whiteSpace=wrap;html=1;strokeColor=#788AA3;fontColor=#46495D;fillColor=#B2C9AB;" vertex="1" parent="GSFXjEDuzY1Gm6PCdfIp-3">
          <mxGeometry x="200" y="20" width="120" height="60" as="geometry" />
        </mxCell>
        <mxCell id="GSFXjEDuzY1Gm6PCdfIp-6" value="&lt;span style=&quot;font-size: 20px;&quot;&gt;批改&lt;/span&gt;" style="rounded=1;whiteSpace=wrap;html=1;strokeColor=#788AA3;fontColor=#46495D;fillColor=#B2C9AB;" vertex="1" parent="GSFXjEDuzY1Gm6PCdfIp-3">
          <mxGeometry x="360" y="20" width="120" height="60" as="geometry" />
        </mxCell>
        <mxCell id="GSFXjEDuzY1Gm6PCdfIp-7" value="&lt;span style=&quot;font-size: 20px;&quot;&gt;CMS&lt;/span&gt;" style="rounded=1;whiteSpace=wrap;html=1;strokeColor=#788AA3;fontColor=#46495D;fillColor=#B2C9AB;" vertex="1" parent="GSFXjEDuzY1Gm6PCdfIp-3">
          <mxGeometry x="500" y="20" width="120" height="60" as="geometry" />
        </mxCell>
        <mxCell id="GSFXjEDuzY1Gm6PCdfIp-8" value="&lt;span style=&quot;font-size: 20px;&quot;&gt;...&lt;/span&gt;" style="rounded=1;whiteSpace=wrap;html=1;strokeColor=#788AA3;fontColor=#46495D;fillColor=#B2C9AB;" vertex="1" parent="GSFXjEDuzY1Gm6PCdfIp-3">
          <mxGeometry x="650" y="20" width="70" height="60" as="geometry" />
        </mxCell>
        <mxCell id="GSFXjEDuzY1Gm6PCdfIp-9" value="&lt;font style=&quot;font-size: 20px;&quot;&gt;环境二&lt;/font&gt;" style="swimlane;horizontal=0;whiteSpace=wrap;html=1;strokeColor=#788AA3;fontColor=#46495D;fillColor=#B2C9AB;" vertex="1" parent="1">
          <mxGeometry x="49" y="370" width="730" height="100" as="geometry" />
        </mxCell>
        <mxCell id="GSFXjEDuzY1Gm6PCdfIp-10" value="&lt;font style=&quot;font-size: 20px;&quot;&gt;网关&lt;/font&gt;" style="rounded=1;whiteSpace=wrap;html=1;strokeColor=#788AA3;fontColor=#46495D;fillColor=#B2C9AB;" vertex="1" parent="GSFXjEDuzY1Gm6PCdfIp-9">
          <mxGeometry x="50" y="20" width="120" height="60" as="geometry" />
        </mxCell>
        <mxCell id="GSFXjEDuzY1Gm6PCdfIp-11" value="&lt;span style=&quot;font-size: 20px;&quot;&gt;投保&lt;/span&gt;" style="rounded=1;whiteSpace=wrap;html=1;strokeColor=#788AA3;fontColor=#46495D;fillColor=#B2C9AB;" vertex="1" parent="GSFXjEDuzY1Gm6PCdfIp-9">
          <mxGeometry x="200" y="20" width="120" height="60" as="geometry" />
        </mxCell>
        <mxCell id="GSFXjEDuzY1Gm6PCdfIp-12" value="&lt;span style=&quot;font-size: 20px;&quot;&gt;批改&lt;/span&gt;" style="rounded=1;whiteSpace=wrap;html=1;strokeColor=#788AA3;fontColor=#46495D;fillColor=#B2C9AB;" vertex="1" parent="GSFXjEDuzY1Gm6PCdfIp-9">
          <mxGeometry x="360" y="20" width="120" height="60" as="geometry" />
        </mxCell>
        <mxCell id="GSFXjEDuzY1Gm6PCdfIp-13" value="&lt;span style=&quot;font-size: 20px;&quot;&gt;CMS&lt;/span&gt;" style="rounded=1;whiteSpace=wrap;html=1;strokeColor=#788AA3;fontColor=#46495D;fillColor=#B2C9AB;" vertex="1" parent="GSFXjEDuzY1Gm6PCdfIp-9">
          <mxGeometry x="500" y="20" width="120" height="60" as="geometry" />
        </mxCell>
        <mxCell id="GSFXjEDuzY1Gm6PCdfIp-14" value="&lt;span style=&quot;font-size: 20px;&quot;&gt;...&lt;/span&gt;" style="rounded=1;whiteSpace=wrap;html=1;strokeColor=#788AA3;fontColor=#46495D;fillColor=#B2C9AB;" vertex="1" parent="GSFXjEDuzY1Gm6PCdfIp-9">
          <mxGeometry x="650" y="20" width="70" height="60" as="geometry" />
        </mxCell>
        <mxCell id="GSFXjEDuzY1Gm6PCdfIp-15" value="&lt;font style=&quot;font-size: 20px;&quot;&gt;环境敏态1&lt;/font&gt;" style="swimlane;horizontal=0;whiteSpace=wrap;html=1;strokeColor=#d6b656;fillColor=#fff2cc;" vertex="1" parent="1">
          <mxGeometry x="40" y="700" width="730" height="100" as="geometry" />
        </mxCell>
        <mxCell id="GSFXjEDuzY1Gm6PCdfIp-17" value="&lt;span style=&quot;font-size: 20px;&quot;&gt;投保&lt;/span&gt;" style="rounded=1;whiteSpace=wrap;html=1;strokeColor=#d6b656;fillColor=#fff2cc;" vertex="1" parent="GSFXjEDuzY1Gm6PCdfIp-15">
          <mxGeometry x="200" y="20" width="120" height="60" as="geometry" />
        </mxCell>
        <mxCell id="GSFXjEDuzY1Gm6PCdfIp-21" value="&lt;font style=&quot;font-size: 20px;&quot;&gt;环境稳态&lt;/font&gt;" style="swimlane;horizontal=0;whiteSpace=wrap;html=1;strokeColor=#d6b656;fillColor=#fff2cc;" vertex="1" parent="1">
          <mxGeometry x="40" y="570" width="730" height="100" as="geometry" />
        </mxCell>
        <mxCell id="GSFXjEDuzY1Gm6PCdfIp-22" value="&lt;font style=&quot;font-size: 20px;&quot;&gt;网关&lt;/font&gt;" style="rounded=1;whiteSpace=wrap;html=1;strokeColor=#d6b656;fillColor=#fff2cc;" vertex="1" parent="GSFXjEDuzY1Gm6PCdfIp-21">
          <mxGeometry x="50" y="20" width="120" height="60" as="geometry" />
        </mxCell>
        <mxCell id="GSFXjEDuzY1Gm6PCdfIp-23" value="&lt;span style=&quot;font-size: 20px;&quot;&gt;投保&lt;/span&gt;" style="rounded=1;whiteSpace=wrap;html=1;strokeColor=#d6b656;fillColor=#fff2cc;" vertex="1" parent="GSFXjEDuzY1Gm6PCdfIp-21">
          <mxGeometry x="200" y="20" width="120" height="60" as="geometry" />
        </mxCell>
        <mxCell id="GSFXjEDuzY1Gm6PCdfIp-24" value="&lt;span style=&quot;font-size: 20px;&quot;&gt;批改&lt;/span&gt;" style="rounded=1;whiteSpace=wrap;html=1;strokeColor=#d6b656;fillColor=#fff2cc;" vertex="1" parent="GSFXjEDuzY1Gm6PCdfIp-21">
          <mxGeometry x="360" y="20" width="120" height="60" as="geometry" />
        </mxCell>
        <mxCell id="GSFXjEDuzY1Gm6PCdfIp-25" value="&lt;span style=&quot;font-size: 20px;&quot;&gt;CMS&lt;/span&gt;" style="rounded=1;whiteSpace=wrap;html=1;strokeColor=#d6b656;fillColor=#fff2cc;" vertex="1" parent="GSFXjEDuzY1Gm6PCdfIp-21">
          <mxGeometry x="500" y="20" width="120" height="60" as="geometry" />
        </mxCell>
        <mxCell id="GSFXjEDuzY1Gm6PCdfIp-26" value="&lt;span style=&quot;font-size: 20px;&quot;&gt;...&lt;/span&gt;" style="rounded=1;whiteSpace=wrap;html=1;strokeColor=#d6b656;fillColor=#fff2cc;" vertex="1" parent="GSFXjEDuzY1Gm6PCdfIp-21">
          <mxGeometry x="650" y="20" width="70" height="60" as="geometry" />
        </mxCell>
        <mxCell id="GSFXjEDuzY1Gm6PCdfIp-27" value="&lt;font style=&quot;font-size: 30px;&quot;&gt;物理隔离&lt;/font&gt;" style="text;html=1;align=center;verticalAlign=middle;whiteSpace=wrap;rounded=0;fontColor=#46495D;" vertex="1" parent="1">
          <mxGeometry x="280" y="190" width="230" height="30" as="geometry" />
        </mxCell>
        <mxCell id="GSFXjEDuzY1Gm6PCdfIp-28" value="&lt;font style=&quot;font-size: 30px;&quot;&gt;流量代理探针&lt;/font&gt;" style="text;html=1;align=center;verticalAlign=middle;whiteSpace=wrap;rounded=0;fontColor=#46495D;" vertex="1" parent="1">
          <mxGeometry x="271" y="520" width="230" height="30" as="geometry" />
        </mxCell>
      </root>
    </mxGraphModel>
  </diagram>
</mxfile>
